<?xml version="1.0" encoding="UTF-8" standalone="no"?>
<svg
   xmlns:dc="http://purl.org/dc/elements/1.1/"
   xmlns:cc="http://creativecommons.org/ns#"
   xmlns:rdf="http://www.w3.org/1999/02/22-rdf-syntax-ns#"
   xmlns:svg="http://www.w3.org/2000/svg"
   xmlns="http://www.w3.org/2000/svg"
   xmlns:sodipodi="http://sodipodi.sourceforge.net/DTD/sodipodi-0.dtd"
   xmlns:inkscape="http://www.inkscape.org/namespaces/inkscape"
   version="1.1"
   id="Layer_1"
   x="0px"
   y="0px"
   viewBox="0 0 2469.7 2469.8"
   style="enable-background:new 0 0 2469.7 2469.8;"
   xml:space="preserve"
   inkscape:version="0.91 r13725"
   sodipodi:docname="icon-mask.svg"><metadata
     id="metadata4153"><rdf:RDF><cc:Work
         rdf:about=""><dc:format>image/svg+xml</dc:format><dc:type
           rdf:resource="http://purl.org/dc/dcmitype/StillImage" /><dc:title></dc:title></cc:Work></rdf:RDF></metadata><defs
     id="defs4151" /><sodipodi:namedview
     pagecolor="#ffffff"
     bordercolor="#666666"
     borderopacity="1"
     objecttolerance="10"
     gridtolerance="10"
     guidetolerance="10"
     inkscape:pageopacity="0"
     inkscape:pageshadow="2"
     inkscape:window-width="1536"
     inkscape:window-height="811"
     id="namedview4149"
     showgrid="false"
     inkscape:zoom="0.26074985"
     inkscape:cx="1234.85"
     inkscape:cy="1234.9"
     inkscape:window-x="-8"
     inkscape:window-y="-8"
     inkscape:window-maximized="1"
     inkscape:current-layer="Layer_1" /><style
     type="text/css"
     id="style4137">
	.st0{fill:#8AB4F8;}
	.st1{fill:#4285F4;}
	.st2{fill:#246FDB;}
</style><path
     style="fill:#000000;fill-opacity:1;stroke:none"
     d="M 1234.5508 -0.05078125 C 1155.5258 -0.05078125 1076.4992 30.100391 1016.1992 90.400391 C 1014.6813 91.918287 1013.1887 93.45086 1011.709 94.992188 L 90.5 1016.1992 C -30.1 1136.6992 -30.199219 1331.9996 90.300781 1452.5996 L 90.5 1452.8008 L 990.7168 2353.0156 A 306 306 0 0 0 1231.1992 2469.9004 A 306 306 0 0 0 1466.4121 2359.4941 L 2370.0391 1461.5078 C 2373.103 1458.6775 2376.1248 1455.7781 2379.0996 1452.8008 C 2499.6996 1332.2008 2499.6996 1136.6992 2379.0996 1016.1992 L 2378.6992 1016.1992 L 1452.9004 90.400391 C 1392.6004 30.100391 1313.5758 -0.05078125 1234.5508 -0.05078125 z M 1234.6738 745.35742 L 1725.0469 1235.4668 L 1232.9746 1732.5605 L 745 1235.0996 L 1234.6738 745.35742 z "
     id="path4141" /></svg>