<svg xmlns="http://www.w3.org/2000/svg" viewBox="0 0 387.973 387.973">
    <defs>
        <clipPath clipPathUnits="userSpaceOnUse" id="a">
            <path d="M0 600h600V0H0Z"/>
        </clipPath>
        <clipPath clipPathUnits="userSpaceOnUse" id="b">
            <path d="M200.008 379.182H302.06V221.12H200.008Z"/>
        </clipPath>
        <clipPath clipPathUnits="userSpaceOnUse" id="c">
            <path d="M276.538 400h123.454V220.719H276.538Z"/>
        </clipPath>
    </defs>
    <g clip-path="url(#a)" transform="matrix(1.33333 0 0 -1.33333 -206.01 593.987)">
        <path d="M392.268 207.72c-.79-.79-1.6-1.58-2.41-2.35-1.58-1.5-3.25-3.01-4.96-4.48-1.77-1.51-3.44-2.88-5.12-4.17-1.69-1.32-3.46-2.62-5.28-3.88-1.75-1.22-3.58-2.43-5.43-3.59-1.69-1.06-3.51-2.13-5.57-3.29-1.85-1.04-3.76-2.04-5.66-2.97-1.94-.96-3.89-1.86-5.8-2.7-16.47-7.15-33.98-10.78-52.04-10.78-18.06 0-35.57 3.63-52.04 10.79-1.58.67-3.19 1.42-4.82 2.22l-.03.02-.03.01c-2.53 1.21-5.08 2.56-7.59 4l-.02.01-.03.01c-1.39.78-2.87 1.66-4.52 2.69-1.84 1.14-3.66 2.34-5.4 3.56-1.84 1.28-3.61 2.58-5.29 3.89-1.69 1.3-3.36 2.67-5.14 4.19-1.7 1.46-3.37 2.97-4.96 4.48-.8.76-1.61 1.55-2.4 2.35-24.65 24.65-38.22 57.42-38.22 92.27 0 34.85 13.57 67.62 38.22 92.28 24.65 24.64 57.42 38.21 92.27 38.21 34.85 0 67.62-13.57 92.27-38.22 24.65-24.65 38.22-57.42 38.22-92.27 0-34.85-13.57-67.62-38.22-92.28m3.54 188.09c-26.46 26.45-61.13 39.68-95.81 39.68s-69.35-13.23-95.81-39.68c-26.45-26.46-39.68-61.13-39.68-95.81s13.23-69.35 39.68-95.81c.83-.83 1.66-1.64 2.5-2.44 1.69-1.6 3.41-3.15 5.15-4.65 1.75-1.5 3.52-2.95 5.32-4.34 1.8-1.4 3.63-2.74 5.49-4.03a118.9 118.9 0 0 1 5.63-3.72c1.56-.97 3.13-1.91 4.72-2.8 2.61-1.5 5.25-2.89 7.93-4.17 1.66-.82 3.34-1.6 5.04-2.33 17.19-7.47 35.61-11.2 54.03-11.2s36.84 3.73 54.04 11.2c2.02.88 4.02 1.81 6.01 2.79 1.99.98 3.95 2.01 5.9 3.1 1.94 1.09 3.87 2.22 5.77 3.41 1.9 1.19 3.78 2.43 5.63 3.72 1.86 1.29 3.69 2.63 5.49 4.03 1.8 1.39 3.57 2.84 5.32 4.34 1.74 1.5 3.46 3.05 5.15 4.65.84.8 1.67 1.61 2.5 2.44 26.45 26.46 39.68 61.13 39.68 95.81s-13.23 69.35-39.68 95.81m-3.54-188.09c-.79-.79-1.6-1.58-2.41-2.35-1.58-1.5-3.25-3.01-4.96-4.48-1.77-1.51-3.44-2.88-5.12-4.17-1.69-1.32-3.46-2.62-5.28-3.88-1.75-1.22-3.58-2.43-5.43-3.59-1.69-1.06-3.51-2.13-5.57-3.29-1.85-1.04-3.76-2.04-5.66-2.97-1.94-.96-3.89-1.86-5.8-2.7-16.47-7.15-33.98-10.78-52.04-10.78-18.06 0-35.57 3.63-52.04 10.79-1.58.67-3.19 1.42-4.82 2.22l-.03.02-.03.01c-2.53 1.21-5.08 2.56-7.59 4l-.02.01-.03.01c-1.39.78-2.87 1.66-4.52 2.69-1.84 1.14-3.66 2.34-5.4 3.56-1.84 1.28-3.61 2.58-5.29 3.89-1.69 1.3-3.36 2.67-5.14 4.19-1.7 1.46-3.37 2.97-4.96 4.48-.8.76-1.61 1.55-2.4 2.35-24.65 24.65-38.22 57.42-38.22 92.27 0 34.85 13.57 67.62 38.22 92.28 24.65 24.64 57.42 38.21 92.27 38.21 34.85 0 67.62-13.57 92.27-38.22 24.65-24.65 38.22-57.42 38.22-92.27 0-34.85-13.57-67.62-38.22-92.28m3.54 188.09c-26.46 26.45-61.13 39.68-95.81 39.68s-69.35-13.23-95.81-39.68c-26.45-26.46-39.68-61.13-39.68-95.81s13.23-69.35 39.68-95.81c.83-.83 1.66-1.64 2.5-2.44 1.69-1.6 3.41-3.15 5.15-4.65 1.75-1.5 3.52-2.95 5.32-4.34 1.8-1.4 3.63-2.74 5.49-4.03a118.9 118.9 0 0 1 5.63-3.72c1.56-.97 3.13-1.91 4.72-2.8 2.61-1.5 5.25-2.89 7.93-4.17 1.66-.82 3.34-1.6 5.04-2.33 17.19-7.47 35.61-11.2 54.03-11.2s36.84 3.73 54.04 11.2c2.02.88 4.02 1.81 6.01 2.79 1.99.98 3.95 2.01 5.9 3.1 1.94 1.09 3.87 2.22 5.77 3.41 1.9 1.19 3.78 2.43 5.63 3.72 1.86 1.29 3.69 2.63 5.49 4.03 1.8 1.39 3.57 2.84 5.32 4.34 1.74 1.5 3.46 3.05 5.15 4.65.84.8 1.67 1.61 2.5 2.44 26.45 26.46 39.68 61.13 39.68 95.81s-13.23 69.35-39.68 95.81m-3.54-188.09c-.79-.79-1.6-1.58-2.41-2.35-1.58-1.5-3.25-3.01-4.96-4.48-1.77-1.51-3.44-2.88-5.12-4.17-1.69-1.32-3.46-2.62-5.28-3.88-1.75-1.22-3.58-2.43-5.43-3.59-1.69-1.06-3.51-2.13-5.57-3.29-1.85-1.04-3.76-2.04-5.66-2.97-1.94-.96-3.89-1.86-5.8-2.7-16.47-7.15-33.98-10.78-52.04-10.78-18.06 0-35.57 3.63-52.04 10.79-1.58.67-3.19 1.42-4.82 2.22l-.03.02-.03.01c-2.53 1.21-5.08 2.56-7.59 4l-.02.01-.03.01c-1.39.78-2.87 1.66-4.52 2.69-1.84 1.14-3.66 2.34-5.4 3.56-1.84 1.28-3.61 2.58-5.29 3.89-1.69 1.3-3.36 2.67-5.14 4.19-1.7 1.46-3.37 2.97-4.96 4.48-.8.76-1.61 1.55-2.4 2.35-24.65 24.65-38.22 57.42-38.22 92.27 0 34.85 13.57 67.62 38.22 92.28 24.65 24.64 57.42 38.21 92.27 38.21 34.85 0 67.62-13.57 92.27-38.22 24.65-24.65 38.22-57.42 38.22-92.27 0-34.85-13.57-67.62-38.22-92.28m3.54 188.09c-26.46 26.45-61.13 39.68-95.81 39.68s-69.35-13.23-95.81-39.68c-26.45-26.46-39.68-61.13-39.68-95.81s13.23-69.35 39.68-95.81c.83-.83 1.66-1.64 2.5-2.44 1.69-1.6 3.41-3.15 5.15-4.65 1.75-1.5 3.52-2.95 5.32-4.34 1.8-1.4 3.63-2.74 5.49-4.03a118.9 118.9 0 0 1 5.63-3.72c1.56-.97 3.13-1.91 4.72-2.8 2.61-1.5 5.25-2.89 7.93-4.17 1.66-.82 3.34-1.6 5.04-2.33 17.19-7.47 35.61-11.2 54.03-11.2s36.84 3.73 54.04 11.2c2.02.88 4.02 1.81 6.01 2.79 1.99.98 3.95 2.01 5.9 3.1 1.94 1.09 3.87 2.22 5.77 3.41 1.9 1.19 3.78 2.43 5.63 3.72 1.86 1.29 3.69 2.63 5.49 4.03 1.8 1.39 3.57 2.84 5.32 4.34 1.74 1.5 3.46 3.05 5.15 4.65.84.8 1.67 1.61 2.5 2.44 26.45 26.46 39.68 61.13 39.68 95.81s-13.23 69.35-39.68 95.81m3.54-195.15c-.86-.86-1.73-1.71-2.6-2.54-1.71-1.62-3.5-3.23-5.34-4.82a136.916 136.916 0 0 0-11.2-8.67c-1.88-1.31-3.84-2.61-5.84-3.86a143.11 143.11 0 0 0-5.98-3.53c-2.01-1.13-4.08-2.21-6.13-3.23-2.08-1.02-4.17-1.99-6.23-2.89-17.74-7.7-36.59-11.61-56.03-11.61-19.44 0-38.29 3.91-56 11.61-1.71.73-3.48 1.55-5.25 2.42-2.75 1.31-5.51 2.77-8.21 4.32-1.53.85-3.13 1.8-4.9 2.9-2 1.24-3.97 2.55-5.84 3.86a135.29 135.29 0 0 0-11.22 8.69c-1.83 1.58-3.62 3.19-5.34 4.82-.86.82-1.73 1.67-2.59 2.53-26.53 26.54-41.14 61.82-41.14 99.34s14.61 72.8 41.15 99.35c26.54 26.53 61.82 41.14 99.34 41.14s72.8-14.61 99.35-41.15c26.53-26.54 41.14-61.82 41.14-99.34s-14.61-72.8-41.14-99.34m3.53 202.22c-27.49 27.48-64.02 42.61-102.88 42.61s-75.39-15.13-102.88-42.61c-27.48-27.49-42.61-64.02-42.61-102.88s15.13-75.39 42.61-102.88c.88-.88 1.78-1.76 2.67-2.61 1.78-1.68 3.63-3.36 5.52-4.98 1.99-1.71 3.86-3.23 5.74-4.68 1.87-1.46 3.86-2.92 5.9-4.34 1.93-1.35 3.98-2.71 6.05-4 1.83-1.13 3.49-2.11 5.07-3 2.8-1.61 5.65-3.11 8.49-4.46 1.84-.91 3.68-1.76 5.46-2.53 18.34-7.97 37.85-12.01 57.98-12.01 20.13 0 39.65 4.05 58.02 12.03 2.13.93 4.3 1.93 6.45 2.99 2.13 1.05 4.27 2.17 6.36 3.34 2.28 1.29 4.31 2.48 6.2 3.66 2.06 1.3 4.1 2.64 6.04 4 2.02 1.4 4.01 2.86 5.91 4.34 1.86 1.43 3.72 2.95 5.69 4.64 1.9 1.64 3.76 3.31 5.52 4.98.91.87 1.81 1.75 2.69 2.63 27.48 27.49 42.61 64.02 42.61 102.88s-15.13 75.39-42.61 102.88" fill="#0e0e0e"/>
        <path d="M395.81 395.811c-26.46 26.45-61.13 39.68-95.81 39.68s-69.35-13.23-95.81-39.68c-26.45-26.46-39.68-61.13-39.68-95.81s13.23-69.35 39.68-95.81c52.92-52.91 138.7-52.91 191.62 0 26.45 26.46 39.68 61.13 39.68 95.81s-13.23 69.35-39.68 95.81" fill="#0e0e0e"/>
        <g clip-path="url(#b)" opacity=".85">
            <path d="M302.06 252.911c-3.895.331-7.88-.08-11.684-1.265a29.732 29.732 0 0 1-10.35-5.702c-6.826-5.75-10.741-14.143-10.741-23.027 0-.602.02-1.205.06-1.797l-62.477 62.89c-9.145 9.154-9.145 24.051-.01 33.186l62.568 61.986c-.803-8.934 2.349-17.858 8.853-24.373l16.282-16.282-37.884-37.884Z" fill="#fff"/>
        </g>
        <g clip-path="url(#c)" opacity=".65">
            <path d="M399.993 300c0-3.131-.612-6.183-1.777-8.993a23.502 23.502 0 0 0-5.11-7.61 25.3 25.3 0 0 0-1.545-1.425l-62.116-61.253c.06.733.08 1.466.08 2.199 0 9.245-4.156 17.827-11.414 23.569l-13.541 14.245 38.577 39.399-59.768 59.768c-8.653 8.663-9.165 22.686-1.144 31.972.31.39.702.803 1.134 1.244a25.03 25.03 0 0 0 2.82 2.399 22.764 22.764 0 0 0 4.959 2.761c.713.29 1.446.542 2.159.753a23.582 23.582 0 0 0 13.37.01 25.202 25.202 0 0 0 2.159-.763 22.484 22.484 0 0 0 3.072-1.516 22.677 22.677 0 0 0 1.957-1.295 24.08 24.08 0 0 0 2.73-2.35l76.511-76.5c4.438-4.437 6.887-10.33 6.887-16.613" fill="#fff"/>
        </g>
        <path d="M322.327 222.917a22.77 22.77 0 0 0-4.628-13.813A22.926 22.926 0 0 0 299.41 200c-5.33 0-10.51 1.867-14.606 5.25a23.29 23.29 0 0 0-4.045 4.336 22.79 22.79 0 0 0-4.266 13.331c0 5.26 1.817 10.39 5.129 14.445a23.175 23.175 0 0 0 3.112 3.152l.843.532v.14a22.965 22.965 0 0 0 13.833 4.638c5.059 0 9.847-1.616 13.843-4.648 1.836-1.415 3.443-3.05 4.748-4.868a22.756 22.756 0 0 0 4.326-13.39" fill="#fff"/>
    </g>
</svg>
